<svg xmlns="http://www.w3.org/2000/svg">
<defs>
  <linearGradient id="skinI" x1="0" y1="0" x2="0" y2="1"><stop offset="0" stop-color="#f2b794"/><stop offset=".55" stop-color="#dc9271"/><stop offset="1" stop-color="#bf765d"/></linearGradient>
  <linearGradient id="skinL" x1="0" y1="0" x2="0" y2="1"><stop offset="0" stop-color="#f5c09c"/><stop offset=".58" stop-color="#e1a17e"/><stop offset="1" stop-color="#c98567"/></linearGradient>
  <linearGradient id="hairI" x1="0" y1="0" x2="1" y2="1"><stop offset="0" stop-color="#ddd8cf"/><stop offset=".48" stop-color="#b4ada2"/><stop offset="1" stop-color="#817a71"/></linearGradient>
  <linearGradient id="hairL" x1="0" y1="0" x2="1" y2="1"><stop offset="0" stop-color="#4c332a"/><stop offset=".5" stop-color="#2c201c"/><stop offset="1" stop-color="#171312"/></linearGradient>
  <linearGradient id="green" x1="0" y1="0" x2="0" y2="1"><stop offset="0" stop-color="#3b725b"/><stop offset=".55" stop-color="#25503f"/><stop offset="1" stop-color="#17372d"/></linearGradient>
  <linearGradient id="cream" x1="0" y1="0" x2="0" y2="1"><stop offset="0" stop-color="#fffdf7"/><stop offset="1" stop-color="#e7dfd0"/></linearGradient>
  <linearGradient id="olive" x1="0" y1="0" x2="0" y2="1"><stop offset="0" stop-color="#81886a"/><stop offset="1" stop-color="#4e573e"/></linearGradient>
  <linearGradient id="tan" x1="0" y1="0" x2="0" y2="1"><stop offset="0" stop-color="#c7ab7e"/><stop offset="1" stop-color="#987652"/></linearGradient>
  <linearGradient id="leather" x1="0" y1="0" x2="1" y2="1"><stop offset="0" stop-color="#a87043"/><stop offset=".55" stop-color="#70482f"/><stop offset="1" stop-color="#472d21"/></linearGradient>
  <linearGradient id="boot" x1="0" y1="0" x2="0" y2="1"><stop offset="0" stop-color="#765039"/><stop offset="1" stop-color="#39271f"/></linearGradient>
  <linearGradient id="dragonGreen" x1="0" y1="0" x2="1" y2="1"><stop offset="0" stop-color="#8ac96c"/><stop offset=".55" stop-color="#68ad55"/><stop offset="1" stop-color="#43813c"/></linearGradient>
  <linearGradient id="gold" x1="0" y1="0" x2="0" y2="1"><stop offset="0" stop-color="#ffe69a"/><stop offset="1" stop-color="#d3a540"/></linearGradient>
  <radialGradient id="cheek" cx="50%" cy="50%" r="50%"><stop offset="0" stop-color="#d77870" stop-opacity=".25"/><stop offset="1" stop-color="#d77870" stop-opacity="0"/></radialGradient>
  <filter id="portraitShadow" x="-30%" y="-30%" width="170%" height="190%"><feDropShadow dx="0" dy="3" stdDeviation="2" flood-color="#2b1e19" flood-opacity=".25"/></filter>
  <filter id="worldShadow" x="-30%" y="-30%" width="170%" height="190%"><feDropShadow dx="0" dy="2.5" stdDeviation="1.4" flood-color="#2b1e19" flood-opacity=".28"/></filter>

  <g id="art-ismael-portrait" filter="url(#portraitShadow)">
    <ellipse cx="90" cy="167" rx="54" ry="8" fill="#2f211b" opacity=".14"/>
    <path d="M30 181c5-42 25-65 60-71 36 6 56 29 60 71z" fill="url(#green)" stroke="#3b2921" stroke-width="3.6"/>
    <path d="M43 151q47-20 94 0" fill="none" stroke="#6f9c82" stroke-width="3" opacity=".45"/>
    <path d="M70 105h40v27H70z" fill="url(#skinI)" stroke="#4a3128" stroke-width="3.2"/>
    <path d="M50 62c1-34 17-51 40-51 26 0 41 18 40 52v21c0 31-17 49-40 49S49 115 49 84z" fill="url(#skinI)" stroke="#4a3128" stroke-width="3.5"/>
    <path d="M49 65c-1-34 14-54 40-57 28-3 45 15 46 47-11-7-23-10-35-10-11-6-24-5-35 2-6 4-11 10-16 18z" fill="url(#hairI)" stroke="#625b52" stroke-width="3.7"/>
    <path d="M55 43q13-17 31-21m-17 14q15-12 32-12m-18 9q17-8 33-3m-9 8q11-4 20-1" fill="none" stroke="#eeeae2" stroke-width="3.1" stroke-linecap="round" opacity=".78"/>
    <path d="M53 70c-6 1-9 7-8 14 1 7 5 11 11 10m70-24c6 1 9 7 8 14-1 7-5 11-11 10" fill="url(#skinI)" stroke="#4a3128" stroke-width="3.1"/>
    <path d="M63 66q10-7 21 0m12 0q10-7 22 0" fill="none" stroke="#65564a" stroke-width="3.7" stroke-linecap="round"/>
    <ellipse cx="76" cy="77" rx="7" ry="8" fill="#744a29"/><ellipse cx="105" cy="77" rx="7" ry="8" fill="#744a29"/>
    <ellipse cx="76" cy="78" rx="3" ry="4.4" fill="#1d1816"/><ellipse cx="105" cy="78" rx="3" ry="4.4" fill="#1d1816"/>
    <circle cx="78" cy="74" r="1.9" fill="#fff"/><circle cx="107" cy="74" r="1.9" fill="#fff"/>
    <path d="M89 79l-3 12 7 1" fill="none" stroke="#b86f59" stroke-width="2.4" stroke-linecap="round"/>
    <ellipse cx="62" cy="89" rx="11" ry="7" fill="url(#cheek)"/><ellipse cx="119" cy="89" rx="11" ry="7" fill="url(#cheek)"/>
    <path d="M68 99q22 15 44 0" fill="#a95550" stroke="#754039" stroke-width="2.2"/>
    <path d="M75 102q15 8 30 0" fill="#fff7ef" stroke="#dfc0ad" stroke-width="1.4"/>
    <path d="M58 91q5 28 32 33 28-5 33-33" fill="none" stroke="#665247" stroke-width="3.5" stroke-linecap="round" stroke-dasharray="2.2 3" opacity=".92"/>
    <path d="M64 94q3 10 11 15m42-15q-3 10-11 15" fill="none" stroke="#514238" stroke-width="2.2" opacity=".68"/>
    <path d="M80 117q10 4 20 0" fill="none" stroke="#5b3b30" stroke-width="1.8" opacity=".52"/>
  </g>

  <g id="art-laura-portrait" filter="url(#portraitShadow)">
    <ellipse cx="90" cy="167" rx="54" ry="8" fill="#2f211b" opacity=".13"/>
    <path d="M30 181c5-42 25-65 60-71 36 6 56 29 60 71z" fill="url(#cream)" stroke="#40302a" stroke-width="3.6"/>
    <path d="M35 49c-15 22-14 69-5 108 19-8 30-27 33-50z" fill="url(#hairL)" stroke="#2f211d" stroke-width="3.6"/>
    <path d="M65 107h50v26H65z" fill="url(#skinL)" stroke="#50342a" stroke-width="3.1"/>
    <path d="M49 62c0-34 17-51 41-51 27 0 42 18 41 52v21c0 30-18 48-41 48S49 114 49 84z" fill="url(#skinL)" stroke="#50342a" stroke-width="3.5"/>
    <path d="M48 65c1-35 18-56 44-56 27 0 42 17 43 47-15-8-29-10-42-6-14-6-29-2-45 15z" fill="url(#hairL)" stroke="#2f211d" stroke-width="3.7"/>
    <path d="M55 43q17-18 39-19m-23 10q17-10 35-8m-4 5q12-4 23 2" fill="none" stroke="#745149" stroke-width="3" stroke-linecap="round" opacity=".72"/>
    <path d="M54 70c-6 1-9 7-8 14 1 7 5 11 11 10m69-24c6 1 9 7 8 14-1 7-5 11-11 10" fill="url(#skinL)" stroke="#50342a" stroke-width="3.1"/>
    <path d="M60 65q11-8 24 0m12 0q11-8 24 0" fill="none" stroke="#36231f" stroke-width="4.3" stroke-linecap="round"/>
    <path d="M63 72q10-6 21 0m13 0q10-6 22 0" fill="none" stroke="#241c19" stroke-width="2" stroke-linecap="round"/>
    <path d="M62 76l-5-2m6 6-5 1m60-5 5-2m-6 6 5 1" stroke="#2b201c" stroke-width="1.5" stroke-linecap="round"/>
    <ellipse cx="75" cy="77" rx="7.8" ry="9.2" fill="#744a2e"/><ellipse cx="106" cy="77" rx="7.8" ry="9.2" fill="#744a2e"/>
    <ellipse cx="75" cy="79" rx="3.3" ry="4.8" fill="#1d1816"/><ellipse cx="106" cy="79" rx="3.3" ry="4.8" fill="#1d1816"/>
    <circle cx="78" cy="73" r="2" fill="#fff"/><circle cx="109" cy="73" r="2" fill="#fff"/>
    <path d="M89 81l-3 10 7 1" fill="none" stroke="#bb725c" stroke-width="2.3" stroke-linecap="round"/>
    <ellipse cx="62" cy="89" rx="11" ry="7" fill="url(#cheek)"/><ellipse cx="119" cy="89" rx="11" ry="7" fill="url(#cheek)"/>
    <path d="M67 99q23 16 46 0" fill="#be5f61" stroke="#8b4346" stroke-width="2.2"/>
    <path d="M74 102q16 8 32 0" fill="#fff8f1" stroke="#e4c6b8" stroke-width="1.4"/>
    <path d="M130 39c20 12 25 39 18 73-5 23-18 42-34 49l-10-20c18-17 23-43 21-70z" fill="url(#hairL)" stroke="#2f211d" stroke-width="3.6"/>
    <path d="M134 58q8 28 1 57" fill="none" stroke="#704d43" stroke-width="2.8" opacity=".58"/>
  </g>

  <g id="art-ismael-world" filter="url(#worldShadow)">
    <ellipse cx="90" cy="170" rx="45" ry="7" fill="#2b211c" opacity=".18"/>
    <path d="M57 102q33-17 66 0l8 42H49z" fill="url(#green)" stroke="#3d2b23" stroke-width="3.6"/>
    <path d="M69 106h42v29H69z" fill="url(#cream)" stroke="#4a3328" stroke-width="2.5"/>
    <path d="M61 104l-8 21m74-21 8 21" stroke="url(#leather)" stroke-width="6" stroke-linecap="round"/>
    <circle cx="90" cy="55" r="35" fill="url(#skinI)" stroke="#443027" stroke-width="3.7"/>
    <path d="M55 56c-2-31 14-45 35-47 24-1 38 15 39 42-12-8-23-10-35-8-11-5-24-2-39 13z" fill="url(#hairI)" stroke="#625b52" stroke-width="3.8"/>
    <path d="M62 38q13-14 29-16m-14 9q14-9 30-6m-2 6q10-3 18 0" fill="none" stroke="#eeeae2" stroke-width="2.7" stroke-linecap="round" opacity=".82"/>
    <path d="M65 52q8-5 18 0m14 0q8-5 18 0" fill="none" stroke="#65564a" stroke-width="2.8" stroke-linecap="round"/>
    <ellipse cx="76" cy="60" rx="5.4" ry="6.2" fill="#704826"/><ellipse cx="104" cy="60" rx="5.4" ry="6.2" fill="#704826"/>
    <circle cx="78" cy="58" r="1.4" fill="#fff"/><circle cx="106" cy="58" r="1.4" fill="#fff"/>
    <path d="M79 74q11 8 22 0" fill="#aa5650" stroke="#754039" stroke-width="1.9"/>
    <path d="M83 76q7 4 14 0" fill="none" stroke="#fff5ed" stroke-width="1.5"/>
    <path d="M64 69q4 16 26 19 22-3 26-19" fill="none" stroke="#665247" stroke-width="2.8" stroke-dasharray="2 2.6"/>
    <path d="M50 118q-13 8-12 25m93-25q13 8 12 25" fill="none" stroke="#493027" stroke-width="6" stroke-linecap="round"/>
    <path d="M65 140l-7 25h24l8-25 8 25h24l-7-25z" fill="url(#tan)" stroke="#493027" stroke-width="3.6"/>
    <path d="M57 164h26m14 0h26" stroke="url(#boot)" stroke-width="8" stroke-linecap="round"/>
    <path d="M65 112h50" stroke="#6c9a82" stroke-width="2.5" opacity=".5"/>
    <path d="M47 110q-8 16-2 31" fill="none" stroke="#b07b48" stroke-width="4"/>
    <circle cx="45" cy="139" r="5" fill="url(#gold)" stroke="#5b3d29" stroke-width="2"/>
  </g>

  <g id="art-laura-world" filter="url(#worldShadow)">
    <ellipse cx="90" cy="170" rx="45" ry="7" fill="#2b211c" opacity=".17"/>
    <path d="M50 43c-15 16-16 48-8 79l25-18 3-51z" fill="url(#hairL)" stroke="#30211d" stroke-width="3.7"/>
    <circle cx="90" cy="56" r="35" fill="url(#skinL)" stroke="#463027" stroke-width="3.7"/>
    <path d="M55 57c1-30 16-46 37-46 23 0 37 14 38 40-13-7-25-8-36-5-12-5-25-1-39 11z" fill="url(#hairL)" stroke="#30211d" stroke-width="3.8"/>
    <path d="M64 50q8-7 18 0m16 0q8-7 18 0" fill="none" stroke="#36231f" stroke-width="3.7" stroke-linecap="round"/>
    <path d="M64 57q8-5 17 0m18 0q8-5 17 0" fill="none" stroke="#241c19" stroke-width="1.7"/>
    <ellipse cx="75" cy="61" rx="5.8" ry="7" fill="#734a2e"/><ellipse cx="106" cy="61" rx="5.8" ry="7" fill="#734a2e"/>
    <circle cx="77" cy="58" r="1.5" fill="#fff"/><circle cx="108" cy="58" r="1.5" fill="#fff"/>
    <path d="M76 75q14 10 28 0" fill="#bb5e60" stroke="#894346" stroke-width="1.9"/>
    <path d="M81 77q9 5 18 0" fill="none" stroke="#fff7ef" stroke-width="1.5"/>
    <path d="M128 38c18 10 21 34 12 59-5 14-15 24-26 30l-8-17c16-14 20-34 16-55z" fill="url(#hairL)" stroke="#30211d" stroke-width="3.7"/>
    <path d="M57 103q33-17 66 0l8 41H49z" fill="url(#cream)" stroke="#41302a" stroke-width="3.6"/>
    <path d="M61 105l-8 21m74-21 8 21" stroke="url(#leather)" stroke-width="6" stroke-linecap="round"/>
    <path d="M50 118q-13 8-12 25m93-25q13 8 12 25" fill="none" stroke="#493027" stroke-width="6" stroke-linecap="round"/>
    <path d="M65 140l-7 25h24l8-25 8 25h24l-7-25z" fill="url(#olive)" stroke="#493027" stroke-width="3.6"/>
    <path d="M57 164h26m14 0h26" stroke="url(#boot)" stroke-width="8" stroke-linecap="round"/>
    <path d="M75 108l15 10 15-10" fill="none" stroke="#b64f49" stroke-width="3.2" stroke-linejoin="round"/>
    <path d="M128 112q8 16 2 31" fill="none" stroke="#b07b48" stroke-width="4"/>
    <circle cx="131" cy="139" r="5" fill="url(#gold)" stroke="#5b3d29" stroke-width="2"/>
  </g>

  <g id="art-dragon" filter="url(#worldShadow)">
    <ellipse cx="90" cy="160" rx="55" ry="9" fill="#2b211c" opacity=".17"/>
    <path d="M46 137c-14-20-12-48 3-67 17-21 45-27 69-16 25 12 38 38 31 65-6 23-28 39-57 40-22 1-37-7-46-22z" fill="url(#dragonGreen)" stroke="#3e3326" stroke-width="4"/>
    <path d="M58 70 42 36l31 20M78 58l-6-30 23 24m14 7 14-28 13 36" fill="url(#gold)" stroke="#51402a" stroke-width="3.6" stroke-linejoin="round"/>
    <path d="M49 105c-25 6-34 23-30 41 12-9 23-13 34-11m83-33c26-4 39 10 43 27-14-4-25-2-36 5" fill="#73b65d" stroke="#3e3326" stroke-width="4"/>
    <ellipse cx="76" cy="88" rx="7" ry="9" fill="#27201c"/><ellipse cx="109" cy="88" rx="7" ry="9" fill="#27201c"/>
    <circle cx="79" cy="84" r="2" fill="#fff"/><circle cx="112" cy="84" r="2" fill="#fff"/>
    <path d="M62 75q11-8 22 0m16 0q11-8 22 0" fill="none" stroke="#315e31" stroke-width="3" stroke-linecap="round"/>
    <path d="M83 108q11 9 23 0" fill="#4f8f47" stroke="#315e31" stroke-width="2.5"/>
    <path d="M80 119l5 10 6-9 7 9 6-10" fill="#fff3da" stroke="#493527" stroke-width="1.8"/>
    <path d="M137 105c21-2 34 8 41 21-14-2-25 3-35 12" fill="#f0a13f" stroke="#9d572c" stroke-width="3.5"/>
    <path d="M61 137q30 14 63 0" fill="none" stroke="#4a8a42" stroke-width="3" opacity=".55"/>
  </g>

  <g id="art-guardian" filter="url(#worldShadow)">
    <ellipse cx="90" cy="162" rx="52" ry="8" fill="#2b211c" opacity=".15"/>
    <path d="M45 155q5-49 45-58 40 9 45 58z" fill="#5e7554" stroke="#463329" stroke-width="4"/>
    <path d="M56 113 90 94l34 19-12 44H68z" fill="#748d64" opacity=".55"/>
    <circle cx="90" cy="68" r="36" fill="#e2ae86" stroke="#463329" stroke-width="4"/>
    <path d="M50 70q3-45 40-48 37 3 40 48l-15-12q-25-19-50 0z" fill="#53694d" stroke="#463329" stroke-width="4"/>
    <path d="M58 55q32-31 64 0" fill="none" stroke="#849477" stroke-width="4" opacity=".6"/>
    <path d="M65 67q9-6 18 0m14 0q9-6 18 0" fill="none" stroke="#65493b" stroke-width="3"/>
    <ellipse cx="75" cy="76" rx="5" ry="6.5" fill="#4f3928"/><ellipse cx="105" cy="76" rx="5" ry="6.5" fill="#4f3928"/>
    <path d="M78 94q12 7 24 0" fill="none" stroke="#9c5f52" stroke-width="3" stroke-linecap="round"/>
    <path d="M68 91q5 25 22 29 17-4 22-29" fill="#e6ded0" stroke="#8d7b69" stroke-width="3" opacity=".95"/>
    <path d="M127 112q13 7 17 25" stroke="#725035" stroke-width="7" stroke-linecap="round"/>
    <circle cx="146" cy="141" r="7" fill="url(#gold)" stroke="#5d432d" stroke-width="2"/>
  </g>
</defs>

<symbol id="char-ismael-v4-portrait" viewBox="0 0 180 180"><use href="#art-ismael-portrait"/></symbol>
<symbol id="char-laura-v4-portrait" viewBox="0 0 180 180"><use href="#art-laura-portrait"/></symbol>
<symbol id="char-ismael-v4-world" viewBox="0 0 180 180"><use href="#art-ismael-world"/></symbol>
<symbol id="char-laura-v4-world" viewBox="0 0 180 180"><use href="#art-laura-world"/></symbol>
<symbol id="npc-dragon-v4" viewBox="0 0 180 180"><use href="#art-dragon"/></symbol>
<symbol id="npc-guardian-v1" viewBox="0 0 180 180"><use href="#art-guardian"/></symbol>
</svg>