<svg xmlns="http://www.w3.org/2000/svg">
<defs>
  <linearGradient id="stone" x1="0" y1="0" x2="0" y2="1"><stop offset="0" stop-color="#eee3cb"/><stop offset="1" stop-color="#c7b89d"/></linearGradient>
  <linearGradient id="brick" x1="0" y1="0" x2="0" y2="1"><stop offset="0" stop-color="#d98858"/><stop offset="1" stop-color="#ae5b3e"/></linearGradient>
  <linearGradient id="copper" x1="0" y1="0" x2="1" y2="1"><stop offset="0" stop-color="#75a38f"/><stop offset="1" stop-color="#456f67"/></linearGradient>
  <linearGradient id="gold" x1="0" y1="0" x2="0" y2="1"><stop offset="0" stop-color="#ffeaa4"/><stop offset="1" stop-color="#d5a84c"/></linearGradient>
  <filter id="tinyShadow" x="-30%" y="-30%" width="160%" height="170%"><feDropShadow dx="0" dy="3" stdDeviation="1.4" flood-color="#3a2619" flood-opacity=".28"/></filter>
</defs>

<symbol id="landmark-florian" viewBox="0 0 180 180"><g filter="url(#tinyShadow)"><ellipse cx="90" cy="158" rx="66" ry="10" fill="#3c2b20" opacity=".15"/><path d="M49 151V72h82v79z" fill="url(#stone)" stroke="#5b3927" stroke-width="5"/><path d="M39 74h102L90 31z" fill="#b44e3e" stroke="#5b3927" stroke-width="5"/><path d="M69 151v-40c0-17 8-27 21-27s21 10 21 27v40" fill="#72513d" stroke="#5b3927" stroke-width="5"/><rect x="57" y="88" width="15" height="19" rx="3" fill="#6e91a3" stroke="#5b3927" stroke-width="3"/><rect x="108" y="88" width="15" height="19" rx="3" fill="#6e91a3" stroke="#5b3927" stroke-width="3"/><path d="M53 59h74" stroke="#f0dfba" stroke-width="4" opacity=".55"/></g></symbol>
<symbol id="landmark-maria" viewBox="0 0 180 180"><g filter="url(#tinyShadow)"><ellipse cx="90" cy="160" rx="66" ry="9" fill="#3c2b20" opacity=".15"/><rect x="39" y="78" width="102" height="72" rx="2" fill="url(#brick)" stroke="#5b3927" stroke-width="5"/><rect x="42" y="49" width="31" height="101" fill="#b96843" stroke="#5b3927" stroke-width="5"/><rect x="105" y="36" width="33" height="114" fill="#aa5a3f" stroke="#5b3927" stroke-width="5"/><path d="M38 49l20-27 20 27M101 36l20-31 21 31" fill="url(#copper)" stroke="#5b3927" stroke-width="5"/><circle cx="121" cy="78" r="10" fill="#f2dfa7" stroke="#5b3927" stroke-width="4"/><path d="M54 113h15M112 110h18M85 102h18" stroke="#7f4233" stroke-width="5"/></g></symbol>
<symbol id="landmark-planty" viewBox="0 0 180 180"><g filter="url(#tinyShadow)"><ellipse cx="90" cy="156" rx="67" ry="10" fill="#3e2c1e" opacity=".15"/><path d="M82 145V91h16v54" fill="#765039" stroke="#5b3927" stroke-width="5"/><circle cx="91" cy="64" r="48" fill="#5f934c" stroke="#4f3a27" stroke-width="5"/><circle cx="55" cy="83" r="30" fill="#76a95d" stroke="#52723f" stroke-width="4"/><circle cx="126" cy="82" r="29" fill="#82b663" stroke="#52723f" stroke-width="4"/><circle cx="91" cy="39" r="27" fill="#8cbd68"/><path d="M29 144h122" stroke="#c5a565" stroke-width="10" stroke-linecap="round"/><path d="M44 132v20M136 132v20M44 141h92" stroke="#6d4b35" stroke-width="5"/></g></symbol>
<symbol id="landmark-maius" viewBox="0 0 180 180"><g filter="url(#tinyShadow)"><ellipse cx="90" cy="158" rx="68" ry="10" fill="#3b2b20" opacity=".15"/><path d="M28 72h124v79H28z" fill="#c99661" stroke="#5b3927" stroke-width="5"/><path d="M24 72l22-31h88l22 31" fill="#6d7181" stroke="#5b3927" stroke-width="5"/><path d="M46 151v-43h88v43" fill="#d6bd8a" stroke="#5b3927" stroke-width="4"/><path d="M57 151v-31M78 151v-31M102 151v-31M123 151v-31" stroke="#845c3c" stroke-width="5"/><path d="M48 91h20M80 91h20M112 91h20" stroke="#6c8b96" stroke-width="9"/><circle cx="90" cy="57" r="8" fill="#e8d49f" stroke="#5b3927" stroke-width="3"/></g></symbol>
<symbol id="landmark-tomasza" viewBox="0 0 180 180"><g filter="url(#tinyShadow)"><ellipse cx="90" cy="153" rx="60" ry="10" fill="#3b2b20" opacity=".14"/><path d="M35 94h110c-4 35-23 54-55 54S39 129 35 94z" fill="#e8dfca" stroke="#5b3927" stroke-width="6"/><ellipse cx="90" cy="93" rx="55" ry="22" fill="#f7efd8" stroke="#5b3927" stroke-width="5"/><path d="M53 90c9-14 18 14 28 0s20 14 30 0 18 11 27-1" fill="none" stroke="#72a158" stroke-width="9" stroke-linecap="round"/><path d="M57 76c-7-14 4-17 0-30M88 74c-8-16 4-19 1-33M120 77c-7-14 4-18 1-31" fill="none" stroke="#fff5d6" stroke-width="6" stroke-linecap="round" opacity=".88"/></g></symbol>
<symbol id="landmark-szeroka" viewBox="0 0 180 180"><g filter="url(#tinyShadow)"><ellipse cx="90" cy="158" rx="69" ry="10" fill="#3b2b20" opacity=".15"/><path d="M28 76h124v75H28z" fill="#d49c6a" stroke="#5b3927" stroke-width="5"/><path d="M23 76l67-44 67 44" fill="#a84c3e" stroke="#5b3927" stroke-width="6" stroke-linejoin="round"/><rect x="78" y="111" width="24" height="40" fill="#74513c" stroke="#5b3927" stroke-width="4"/><rect x="45" y="94" width="22" height="24" fill="#6d8ea0" stroke="#5b3927" stroke-width="4"/><rect x="113" y="94" width="22" height="24" fill="#6d8ea0" stroke="#5b3927" stroke-width="4"/><circle cx="90" cy="76" r="12" fill="#f3d896" stroke="#5b3927" stroke-width="4"/></g></symbol>
<symbol id="landmark-bernatek" viewBox="0 0 180 180"><g filter="url(#tinyShadow)"><ellipse cx="90" cy="153" rx="70" ry="10" fill="#3a291e" opacity=".14"/><path d="M18 119h144" stroke="#865a37" stroke-width="13" stroke-linecap="round"/><path d="M24 117C45 62 68 57 90 117c23-60 47-55 66 0" fill="none" stroke="#5b3927" stroke-width="8"/><path d="M31 77v67M90 63v81M149 77v67" stroke="#513729" stroke-width="6"/><path d="M26 132h128" stroke="#d7b568" stroke-width="4" stroke-dasharray="8 8"/><path d="M92 54c8-18 18-18 26-5" fill="none" stroke="#d6cfbf" stroke-width="4"/></g></symbol>
<symbol id="landmark-placnowy" viewBox="0 0 180 180"><g filter="url(#tinyShadow)"><ellipse cx="90" cy="154" rx="64" ry="10" fill="#3b2b20" opacity=".14"/><path d="M37 75h106v72H37z" fill="#c79a64" stroke="#5b3927" stroke-width="5"/><path d="M31 75l59-38 59 38" fill="#7c6c58" stroke="#5b3927" stroke-width="5"/><rect x="77" y="100" width="26" height="47" fill="#73503a" stroke="#5b3927" stroke-width="4"/><path d="M49 96h18M113 96h18" stroke="#6990a0" stroke-width="10"/><ellipse cx="90" cy="62" rx="19" ry="14" fill="#c88945" stroke="#5b3927" stroke-width="4"/><ellipse cx="90" cy="62" rx="7" ry="5" fill="#f7e9c5"/></g></symbol>
<symbol id="landmark-wawel" viewBox="0 0 180 180"><g filter="url(#tinyShadow)"><ellipse cx="90" cy="159" rx="72" ry="10" fill="#3b2b20" opacity=".15"/><path d="M25 151V79h32V55h34v24h34V61h30v90z" fill="url(#stone)" stroke="#5b3927" stroke-width="5"/><path d="M20 79l21-27 21 27M56 55l18-24 20 24M120 61l20-28 20 28" fill="#b84b3f" stroke="#5b3927" stroke-width="5"/><rect x="80" y="113" width="22" height="38" fill="#76523d" stroke="#5b3927" stroke-width="4"/><path d="M36 102h16M66 91h16M108 96h17M134 91h12" stroke="#7094a4" stroke-width="8"/></g></symbol>
<symbol id="landmark-rynek" viewBox="0 0 180 180"><g filter="url(#tinyShadow)"><ellipse cx="90" cy="158" rx="70" ry="10" fill="#3b2b20" opacity=".14"/><path d="M29 82h122v67H29z" fill="#d3c6a7" stroke="#5b3927" stroke-width="5"/><path d="M24 82l18-26h96l18 26" fill="#7c6a55" stroke="#5b3927" stroke-width="5"/><path d="M47 149v-37h86v37" fill="#bda67e" stroke="#5b3927" stroke-width="4"/><path d="M55 149v-26M77 149v-26M102 149v-26M125 149v-26" stroke="#77543c" stroke-width="5"/><rect x="52" y="91" width="19" height="16" fill="#6f91a1"/><rect x="82" y="91" width="19" height="16" fill="#6f91a1"/><rect x="112" y="91" width="19" height="16" fill="#6f91a1"/></g></symbol>
<symbol id="landmark-ghetto" viewBox="0 0 180 180"><g filter="url(#tinyShadow)"><ellipse cx="90" cy="156" rx="66" ry="10" fill="#3a2a20" opacity=".14"/><path d="M42 45v87M114 45v87M42 80h72M29 132h40M94 132h48" stroke="#6c4c36" stroke-width="12" stroke-linecap="round"/><path d="M42 62h72" stroke="#9a7354" stroke-width="5"/><path d="M30 148h112" stroke="#bfa66f" stroke-width="7" stroke-linecap="round"/></g></symbol>

<symbol id="nav-home" viewBox="0 0 120 120"><g filter="url(#tinyShadow)"><path d="M18 58L60 20l42 38v43H18z" fill="#e8bc71" stroke="#5b3927" stroke-width="7"/><path d="M11 59L60 14l49 45" fill="none" stroke="#9d493b" stroke-width="11" stroke-linejoin="round"/><rect x="50" y="71" width="20" height="30" fill="#75513a"/></g></symbol>
<symbol id="nav-map" viewBox="0 0 120 120"><g filter="url(#tinyShadow)"><path d="M12 22l29-8 22 10 45-9v80l-45 10-22-10-29 8z" fill="#83bd94" stroke="#5b3927" stroke-width="6"/><path d="M41 14v81M63 24v81" stroke="#f9ebbf" stroke-width="4"/><path d="M26 63c17-22 34-11 45 4 11 15 22 12 34-5" fill="none" stroke="#d3a65b" stroke-width="7"/></g></symbol>
<symbol id="nav-quests" viewBox="0 0 120 120"><g filter="url(#tinyShadow)"><path d="M27 12h66v96H27z" fill="#f5e0a5" stroke="#5b3927" stroke-width="7"/><path d="M39 36h43M39 53h36M39 70h43M39 87h30" stroke="#9b754d" stroke-width="5" stroke-linecap="round"/><circle cx="87" cy="28" r="12" fill="url(#gold)" stroke="#5b3927" stroke-width="4"/></g></symbol>
<symbol id="nav-diary" viewBox="0 0 120 120"><g filter="url(#tinyShadow)"><path d="M8 25c22-9 37-6 50 5v72c-17-12-32-15-50-7zM112 25c-22-9-37-6-50 5v72c17-12 32-15 50-7z" fill="#f7e7b4" stroke="#5b3927" stroke-width="6"/><path d="M60 30v72" stroke="#8f6845" stroke-width="4"/></g></symbol>
<symbol id="nav-budget" viewBox="0 0 120 120"><g filter="url(#tinyShadow)"><path d="M27 42c2-23 15-32 33-32 19 0 31 10 34 32l8 65H18z" fill="#9f653c" stroke="#5b3927" stroke-width="7"/><path d="M43 43c0-14 6-22 17-22s17 8 17 22" fill="none" stroke="#e3c48a" stroke-width="6"/><circle cx="60" cy="72" r="15" fill="url(#gold)" stroke="#5b3927" stroke-width="5"/></g></symbol>
</svg>